<svg class="animated" id="freepik_stories-basketball" xmlns="http://www.w3.org/2000/svg" viewBox="0 0 500 500" version="1.1" xmlns:xlink="http://www.w3.org/1999/xlink" xmlns:svgjs="http://svgjs.com/svgjs"><style>svg#freepik_stories-basketball:not(.animated) .animable {opacity: 0;}svg#freepik_stories-basketball.animated #freepik--Plants--inject-159 {animation: 3s Infinite  linear heartbeat;animation-delay: 0s;}svg#freepik_stories-basketball.animated #freepik--Floor--inject-159 {animation: 3s Infinite  linear heartbeat;animation-delay: 0s;}svg#freepik_stories-basketball.animated #freepik--Character--inject-159 {animation: 3s Infinite  linear floating;animation-delay: 0s;}            @keyframes heartbeat {                0% {                    transform: scale(1);                }                10% {                    transform: scale(1.1);                }                30% {                    transform: scale(1);                }                40% {                    transform: scale(1);                }                50% {                    transform: scale(1.1);                }                60% {                    transform: scale(1);                }                100% {                    transform: scale(1);                }            }                    @keyframes floating {                0% {                    opacity: 1;                    transform: translateY(0px);                }                50% {                    transform: translateY(-10px);                }                100% {                    opacity: 1;                    transform: translateY(0px);                }            }        </style><g id="freepik--Plants--inject-159" class="animable" style="transform-origin: 255.91px 236.284px;"><g id="freepik--plants--inject-159" class="animable" style="transform-origin: 442.419px 240.089px;"><path d="M428.44,279l-9.06-5.26s-2.16-19.43-.64-34.47c2.15-21.13,15.88-46.53,32.14-40.5s-7.55,27.47-12.89,45.39S428.44,279,428.44,279Z" style="fill: #00FF80; transform-origin: 437.338px 238.434px;" id="elsurwjcb941p" class="animable"></path><g id="elh64dg2vvgzd"><path d="M428.44,279l-9.06-5.26s-2.16-19.43-.64-34.47c2.15-21.13,15.88-46.53,32.14-40.5s-7.55,27.47-12.89,45.39S428.44,279,428.44,279Z" style="opacity: 0.15; transform-origin: 437.338px 238.434px;" class="animable" id="elmof69xoak3"></path></g><path d="M423.67,276.8h0a.54.54,0,0,0,.53-.56c-1.45-47,22-70.53,22.24-70.76a.55.55,0,0,0-.76-.79c-.24.24-24,24.13-22.57,71.58A.54.54,0,0,0,423.67,276.8Z" style="fill: rgb(255, 255, 255); transform-origin: 434.813px 240.683px;" id="ellfgvbblza1l" class="animable"></path><path d="M434.13,282.31l-6.44-3.75a91.26,91.26,0,0,1,5.1-30.74c5.89-16.9,20.31-24.5,27.4-22s7.94,7.47,4.47,12.74S439,256.38,434.13,282.31Z" style="fill: #00FF80; transform-origin: 447.164px 253.832px;" id="eldubnwx34zns" class="animable"></path><path d="M430.73,280.88h0a.55.55,0,0,0,.55-.55c0-29.7,27.91-49.69,28.19-49.88a.55.55,0,0,0,.13-.77.54.54,0,0,0-.76-.13c-.29.2-28.7,20.52-28.66,50.78A.55.55,0,0,0,430.73,280.88Z" style="fill: rgb(255, 255, 255); transform-origin: 444.942px 255.164px;" id="eljs7rk3ykr2h" class="animable"></path></g><g id="freepik--plants--inject-159" class="animable" style="transform-origin: 73.1234px 236.284px;"><path d="M85.89,272l12.87-7.42s4.12-20.08,1.35-40.23c-4.72-34.32-23.36-39.46-30.49-37S60.41,198,72.14,215C79.05,225,87.52,245.8,85.89,272Z" style="fill: #00FF80; transform-origin: 82.4371px 229.411px;" id="elkf53h6k1h1p" class="animable"></path><g id="elb9sxmvnhvbl"><g style="opacity: 0.15; transform-origin: 82.4371px 229.411px;" class="animable" id="el8wdup3hxbyg"><path d="M85.89,272l12.87-7.42s4.12-20.08,1.35-40.23c-4.72-34.32-23.36-39.46-30.49-37S60.41,198,72.14,215C79.05,225,87.52,245.8,85.89,272Z" id="el3sd8ay4bh7u" class="animable" style="transform-origin: 82.4371px 229.411px;"></path></g></g><path d="M94,260.74h-.08a.62.62,0,0,1-.54-.71c3.74-26.43-6.79-55.44-18.7-67.15a.63.63,0,1,1,.89-.9C87.66,203.9,98.4,233.38,94.6,260.2A.64.64,0,0,1,94,260.74Z" style="fill: rgb(255, 255, 255); transform-origin: 84.9347px 226.269px;" id="eltrhhc9mgd8f" class="animable"></path><path d="M62,285.64c-1.44.73-5.25-2.55-6.31-3.35A13.39,13.39,0,0,1,51.57,277a12.54,12.54,0,0,1-.71-7.56A31.62,31.62,0,0,1,52,265.48l1.32-3.81a9.67,9.67,0,0,0,.78-3.87c-.2-2.66-2.45-4.64-4.5-6.35-2.26-1.9-4.6-4.36-4.41-7.55a11.22,11.22,0,0,1,3.16-6.51c1.63-1.85,3.53-3.46,5-5.42a7.86,7.86,0,0,0,1.87-4.86,8.16,8.16,0,0,0-.91-3.15c-1-2.13-2.4-4.11-3.06-6.38s-.39-5,1.43-6.54c1.5-1.23,3.63-1.3,5.55-1.07a12.7,12.7,0,0,1,5,2.07c4.91,3.08,7.47,9.22,12.72,11.67,2,.95,4.28,1.25,6.41,1.94s4.27,1.9,5.16,3.95c2,4.5-2.65,8.79.61,13.17,1,1.35,2.33,2.44,3.41,3.75,3,3.67,4.37,7.52,3.52,13.47a14.88,14.88,0,0,1-6.77,10.57S62.26,285.53,62,285.64Z" style="fill: #00FF80; transform-origin: 70.2438px 247.806px;" id="el10phf1mlfqbb" class="animable"></path><path d="M76,278.43h0a.64.64,0,0,1-.58-.69c2.38-24.94-7.92-53.16-16.05-61.63a.63.63,0,1,1,.91-.88c8.3,8.65,18.81,37.34,16.4,62.63A.63.63,0,0,1,76,278.43Z" style="fill: rgb(255, 255, 255); transform-origin: 68.1109px 246.734px;" id="elkou80bugibj" class="animable"></path><path d="M73.59,247.67l-.19,0a85.07,85.07,0,0,0-18-3.9.63.63,0,0,1-.57-.68.61.61,0,0,1,.69-.57c.1,0,10.24,1,18.3,4a.62.62,0,0,1,.37.8A.64.64,0,0,1,73.59,247.67Z" style="fill: rgb(255, 255, 255); transform-origin: 64.5285px 245.093px;" id="elkbhbfh1xhtg" class="animable"></path></g></g><g id="freepik--Floor--inject-159" class="animable" style="transform-origin: 250.82px 349.91px;"><g id="freepik--floor--inject-159"><ellipse cx="250.82" cy="349.91" rx="124.19" ry="222.17" style="fill: rgb(69, 90, 100); transform-origin: 250.82px 349.91px; transform: rotate(-89.83deg);" class="animable" id="elzgkegxrktn"></ellipse></g><path d="M348.33,298.47l61.23-35.1-1.38-.8q-3.24-1.81-6.59-3.55l-61.08,35c-51.28-27-132.11-26.68-182.29,1.17-25.68,14.25-39.86,33.54-39.92,54.3-.06,19.5,12.33,37.76,35,51.85l-61.24,35.1,1.38.79c2.16,1.22,4.37,2.4,6.59,3.56l61.08-35c25.1,13.21,57.26,19.89,89.46,20,33.59.1,67.21-6.94,92.83-21.16s39.86-33.54,39.92-54.31C383.4,330.82,371,312.55,348.33,298.47ZM126.87,349.53c0-17.53,12.66-34.16,35.51-46.84C186.84,289.11,219,282.38,251,282.48c28.7.09,57.38,5.66,80.56,16.66L161.86,396.45C139.24,383.65,126.82,367,126.87,349.53Zm212.39,47.6c-46.35,25.72-120.12,26.84-169.21,3.54l169.73-97.3c22.62,12.8,35.05,29.45,35,46.92S362.11,384.45,339.26,397.13Z" style="fill: rgb(224, 224, 224); transform-origin: 250.81px 349.905px;" id="elwgu03h0mul" class="animable"></path></g><g id="freepik--Shadows--inject-159" class="animable" style="transform-origin: 258.561px 368.24px;"><g id="freepik--Shadow--inject-159"><ellipse cx="318.11" cy="375.55" rx="37.95" ry="65.73" style="opacity: 0.1; transform-origin: 318.11px 375.55px; transform: rotate(-89.83deg);" class="animable" id="elue9gc3hu48"></ellipse></g><g id="freepik--shadow--inject-159"><ellipse cx="162.11" cy="339.55" rx="16.68" ry="28.89" style="opacity: 0.1; transform-origin: 162.11px 339.55px; transform: rotate(-89.83deg);" class="animable" id="el1c28w11tr7m"></ellipse></g></g><g id="freepik--Character--inject-159" class="animable" style="transform-origin: 260.093px 217.795px;"><g id="freepik--character--inject-159" class="animable" style="transform-origin: 260.093px 217.795px;"><path d="M237.06,194.3,231,258.13c-7.06-1.83-12-2-20.2-1.16-8.83.91-25.16,5.78-30.8,5.44l-1.79-.15L172.5,261s-10.83,16,8.63,16.69c14.36,1.49,32.29,5.21,46.87,6.81,28.82,3.15,33.11,2.42,37-7.17,2.83-7,4.73-13,8.24-30,3.76-18.21,4.49-35.49,4.67-47.18Z" style="fill: rgb(177, 102, 104); transform-origin: 223.703px 240.236px;" id="eleoj4ld3ora" class="animable"></path><path d="M277.27,200.83l-40.21-6.53s-6.5,45.32-8.05,66.09c2.48,5.4,13,14.45,20.74,16.57,7.18,2,16.7.42,16.7.42s10.36-24.41,11.94-39.33A146.74,146.74,0,0,0,277.27,200.83Z" style="fill: #00FF80; transform-origin: 254.046px 236.136px;" id="ell8tu6wvj7us" class="animable"></path><g id="eloftmxdqp9u"><path d="M277.27,200.83l-40.21-6.53s-6.5,45.32-8.05,66.09c2.48,5.4,13,14.45,20.74,16.57,7.18,2,16.7.42,16.7.42s10.36-24.41,11.94-39.33A146.74,146.74,0,0,0,277.27,200.83Z" style="opacity: 0.4; transform-origin: 254.046px 236.136px;" class="animable" id="el93la5vo7utc"></path></g><path d="M246.13,272.85c-5.26-2.73-13.58-10.46-16.75-16.92-.15,1.58-.27,3.08-.37,4.46,2.48,5.4,13,14.45,20.74,16.57,7.18,2,16.7.42,16.7.42l1.27-3.09C264.12,275.51,252.92,276.38,246.13,272.85Z" style="fill: rgb(55, 71, 79); transform-origin: 248.365px 266.951px;" id="el7zvnehxu72o" class="animable"></path><path d="M164.53,257.71a9.16,9.16,0,0,0-5.34-2c-1.92-.07-6.72,2.26-8.13,7s-.82,10-1.52,13.43-4.07,9.54-5.94,12.62-2.78,10.44.43,16.08c2.05,3.62,6.07,4.53,8.64,4.64Z" style="fill: rgb(55, 71, 79); transform-origin: 153.218px 282.594px;" id="el95w2z6cwdq4" class="animable"></path><path d="M178.72,271.31l-.9-.12a34.53,34.53,0,0,0-5.57-.12,9.87,9.87,0,0,0,5.79-7.73l.12-1.08,1.79.15a1.65,1.65,0,0,0-.81-1.74,4.89,4.89,0,0,0-2-.57c-2.71-.42-5.4-1-8.05-1.65-2.07-.53-4.35-1.55-6.49-1.62-2.84-.1-6.8,2.41-8.59,6.49-1.55,3.54-1.46,8.54-1.82,12.27-.2,2.09-1.1,3.58-1.87,5.46-.88,2.15-3.51,6.71-4.21,8.93a18.82,18.82,0,0,0-.77,5.54,17.52,17.52,0,0,0,.87,6.06c1.06,3,3.71,7,6.74,8,3.4-.23,7.16-2.15,8.14-6.5a75.17,75.17,0,0,1,2.41-9.15,41.06,41.06,0,0,1,4.67-8.42c.21-.28.41-.59.63-.84l.67-.76c1.65-1.79,3.9-2.75,6-4,1.89-1.13,4.49-.62,6.54-.58a.85.85,0,0,0,1.11-1,14.66,14.66,0,0,0-.45-3.5,4.92,4.92,0,0,0-2-2.84A5.43,5.43,0,0,0,178.72,271.31Z" style="fill: #00FF80; transform-origin: 164.237px 283.204px;" id="el98k95rlrcyr" class="animable"></path><g id="elz5ru7nii92"><path d="M178.72,271.31l-.9-.12a34.53,34.53,0,0,0-5.57-.12,9.87,9.87,0,0,0,5.79-7.73l.12-1.08,1.79.15a1.65,1.65,0,0,0-.81-1.74,4.89,4.89,0,0,0-2-.57c-2.71-.42-5.4-1-8.05-1.65-2.07-.53-4.35-1.55-6.49-1.62-2.84-.1-6.8,2.41-8.59,6.49-1.55,3.54-1.46,8.54-1.82,12.27-.2,2.09-1.1,3.58-1.87,5.46-.88,2.15-3.51,6.71-4.21,8.93a18.82,18.82,0,0,0-.77,5.54,17.52,17.52,0,0,0,.87,6.06c1.06,3,3.71,7,6.74,8,3.4-.23,7.16-2.15,8.14-6.5a75.17,75.17,0,0,1,2.41-9.15,41.06,41.06,0,0,1,4.67-8.42c.21-.28.41-.59.63-.84l.67-.76c1.65-1.79,3.9-2.75,6-4,1.89-1.13,4.49-.62,6.54-.58a.85.85,0,0,0,1.11-1,14.66,14.66,0,0,0-.45-3.5,4.92,4.92,0,0,0-2-2.84A5.43,5.43,0,0,0,178.72,271.31Z" style="opacity: 0.4; transform-origin: 164.237px 283.204px;" class="animable" id="el8r7ugfi16ss"></path></g><path d="M145.75,299.93c1.37,3.31,3.77,2.05,5.18,2.84a18.69,18.69,0,0,1,4.48,4.59c1.17,1.61-1.69,3-4.9,1.83A8,8,0,0,1,145.75,299.93Z" style="fill: rgb(55, 71, 79); transform-origin: 150.605px 304.777px;" id="elspbwcba518" class="animable"></path><path d="M162.4,297.67a12.6,12.6,0,0,0-7.85-5.73,1.2,1.2,0,1,0-.5,2.34c.06,0,7.4,2.08,7.54,6.77C162.27,300.08,162.68,299.93,162.4,297.67Z" style="fill: rgb(255, 255, 255); transform-origin: 157.749px 296.47px;" id="elhe929qrpo55" class="animable"></path><path d="M156.78,285.31a1.2,1.2,0,0,0-.5,2.35c.06,0,6.53,1.75,7.43,5.86a2.6,2.6,0,0,0,1-2.27A12.57,12.57,0,0,0,156.78,285.31Z" style="fill: rgb(255, 255, 255); transform-origin: 160.025px 289.402px;" id="elgm85snrzm5m" class="animable"></path><path d="M159.46,279.38a1.2,1.2,0,1,0-.5,2.34c.06,0,5.94,1.35,7.19,6.95a5.41,5.41,0,0,0,1.65-2.58A12.42,12.42,0,0,0,159.46,279.38Z" style="fill: rgb(255, 255, 255); transform-origin: 162.86px 284px;" id="elz21iyd0w9v" class="animable"></path><path d="M171.91,282c-1.37-5.4-6.28-7.89-8.94-8.47a1.2,1.2,0,1,0-.51,2.34c.07,0,6.51,1.5,7.33,7.79A3.69,3.69,0,0,0,171.91,282Z" style="fill: rgb(255, 255, 255); transform-origin: 166.674px 278.572px;" id="elo2n27z4qgc" class="animable"></path><path d="M263.74,111.55c12.72,2,21,5.83,21.17,20.94.13,10.63-.89,25.21-1,45.95q17.78,9,35.93,17.25a28.7,28.7,0,0,0,4.69,1.72c1.95.51,3.93,2,5.61,3a52,52,0,0,1,10,8.3,13.32,13.32,0,0,1,2.57,3.54,5.48,5.48,0,0,1,.24,4.27,5.23,5.23,0,0,1-2.69,2.65,10.7,10.7,0,0,1-3.75.87,31.81,31.81,0,0,1-13.65-2.41c-4.76-1.81-9-4.71-13.7-6.53-3.89-1.5-6.95-2.53-12.38-4.31-5.93-1.94-11.74-3.88-17-5.53-4.53-1.42-12.71-4.27-16.8-6.73-7.29-4.39-5.57-9.93-4.27-24.05C260.58,150.83,263.31,129.2,263.74,111.55Z" style="fill: rgb(177, 102, 104); transform-origin: 300.41px 165.811px;" id="el8rt13viscl" class="animable"></path><path d="M291.17,250.35c-9.92-12.63-17.68-22.24-26.79-34.84,5.43-6.36,8.84-12.3,14.27-18.75-18.91-3-37.76-5.27-56.7-8.69-2,12.44-4.81,10.27-4.79,26.59,0,11.41,17.38,29.91,30.06,41.35,8.07,7.27,17.78,15.74,28.25,22.72A59.62,59.62,0,0,0,279,300.3c2.76,7.86,7.12,15.23,11.2,22.46,3.85,6.81,7.82,13.56,11.63,20.4,1.73,3.09,3.43,6.2,5,9.36.83,1.64,1.55,4,2.61,5.4,1.88,2.55,5,4.38,8.14,3.94a9.46,9.46,0,0,0,2.54-.78c3-1.32,6-4.85,5.13-8-.74-2.69-2-6.34-2.81-9-5.27-18.73-11.67-45.79-15.36-61.92C302.81,263.41,300.19,261.82,291.17,250.35Z" style="fill: rgb(177, 102, 104); transform-origin: 271.281px 274.998px;" id="el8tnh1zq3eum" class="animable"></path><path d="M258.12,274.54a45.58,45.58,0,0,0,13.53-2.28c1.84-.59-6.23-11.83-4.49-12.67s10.51,10.88,15,7.46c8-6.05,10.59-10.13,13.49-15.7-11.14-13.74-20.9-26.86-25.66-33,1.72-2.81,5.36-7.26,7.24-17.51-18.9-2.83-54.53-5.33-69.13-6.57.57,7,.34,17.05,2.35,23.9,2.54,8.65,4.7,11.26,14.1,22.53C231.64,249.15,248.17,265.05,258.12,274.54Z" style="fill: #00FF80; transform-origin: 251.875px 234.405px;" id="elgz5on2n0sgp" class="animable"></path><g id="elxi29v9768ap"><path d="M258.12,274.54a45.58,45.58,0,0,0,13.53-2.28c1.84-.59-6.23-11.83-4.49-12.67s10.51,10.88,15,7.46c8-6.05,10.59-10.13,13.49-15.7-11.14-13.74-20.9-26.86-25.66-33,1.72-2.81,5.36-7.26,7.24-17.51-18.9-2.83-54.53-5.33-69.13-6.57.57,7,.34,17.05,2.35,23.9,2.54,8.65,4.7,11.26,14.1,22.53C231.64,249.15,248.17,265.05,258.12,274.54Z" style="opacity: 0.2; transform-origin: 251.875px 234.405px;" class="animable" id="elvvfbqvz14oj"></path></g><path d="M294.16,249.46c-2.19,5.24-8.77,12.62-11.45,14.66-3,2.27-5,.13-8.67-2.66s-7-5.89-8.89-4.59-.3,4.42,1.11,7.56,3.85,6-.09,6.77a90.59,90.59,0,0,1-10.44,1.05c.82.8,1.63,1.57,2.39,2.29a45.58,45.58,0,0,0,13.53-2.28c1.84-.59-6.23-11.83-4.49-12.67s10.51,10.88,15,7.46c8-6.05,10.59-10.13,13.49-15.7C295.17,250.72,294.67,250.09,294.16,249.46Z" style="fill: rgb(69, 90, 100); transform-origin: 275.69px 262px;" id="elz2lz2wtxdz" class="animable"></path><path d="M307.74,372.24a15,15,0,0,0,.27,5.39c1.24,1.74,2.68,2.37,5.65,3.62s6.57,1.26,10.64,5.27a28.17,28.17,0,0,0,12.27,6.77c4.88,1.17,13.37,1,18.13-.66s6.28-3.16,6.39-7.67C344.1,378.41,310.7,354.35,307.74,372.24Z" style="fill: rgb(55, 71, 79); transform-origin: 334.351px 379.896px;" id="elixw7uxjecn" class="animable"></path><path d="M360.5,381.26c-2.93-6.24-10.92-8-16.67-11.28a53.63,53.63,0,0,1-7.44-5.15c-.32-.26-.64-.52-.94-.79l-.16-.14c-6.52-5.93-9-14.06-10-16.5s-5.13,1.33-8.59,3.24a6.06,6.06,0,0,0-2.87,6.67,4.1,4.1,0,0,0-2.53-2.9,9.67,9.67,0,0,0-3.77-.53l-1-2.06c-2.29,2.18.24,5.48,1,9.41s-1.06,9.37.83,12.29h0a4.27,4.27,0,0,0,.4.7c2.5,3.38,6,3.43,10.6,5.46,3.87,1.68,7.26,5,11,7.56,5.38,3.62,12.9,4.07,18.65,3.28S363.42,387.5,360.5,381.26Z" style="fill: #00FF80; transform-origin: 333.339px 368.727px;" id="elujjnkg2bp39" class="animable"></path><g id="el1brpw7h2rll"><path d="M360.5,381.26c-2.93-6.24-10.92-8-16.67-11.28a53.63,53.63,0,0,1-7.44-5.15c-.32-.26-.64-.52-.94-.79l-.16-.14c-6.52-5.93-9-14.06-10-16.5s-5.13,1.33-8.59,3.24a6.06,6.06,0,0,0-2.87,6.67,4.1,4.1,0,0,0-2.53-2.9,9.67,9.67,0,0,0-3.77-.53l-1-2.06c-2.29,2.18.24,5.48,1,9.41s-1.06,9.37.83,12.29h0a4.27,4.27,0,0,0,.4.7c2.5,3.38,6,3.43,10.6,5.46,3.87,1.68,7.26,5,11,7.56,5.38,3.62,12.9,4.07,18.65,3.28S363.42,387.5,360.5,381.26Z" style="opacity: 0.4; transform-origin: 333.339px 368.727px;" class="animable" id="el9tawyb2v54"></path></g><path d="M344.27,390.85c4.73-.33,3.44-3.16,7.78-5.4s8.4-3.88,9-2,.38,5.38-7.18,7.26C346.16,392.64,343.41,391.37,344.27,390.85Z" style="fill: rgb(55, 71, 79); transform-origin: 352.689px 387.186px;" id="elpgc6471oa27" class="animable"></path><path d="M338.1,381.79a1.33,1.33,0,0,1-.34-.05,1.19,1.19,0,0,1-.81-1.47c.05-.18,1.3-4.4,7.26-7.18a15.52,15.52,0,0,1,3.51-1.17c2.36-.47,5,1.33,5.36,2.52a1,1,0,0,1-.28-.07c-.12-.05-3.28-1.12-7.57.89-4.91,2.29-5.94,5.54-6,5.67A1.22,1.22,0,0,1,338.1,381.79Z" style="fill: rgb(255, 255, 255); transform-origin: 344.992px 376.817px;" id="elleh0ner7vk" class="animable"></path><path d="M330.74,377.7a1.24,1.24,0,0,1-.33,0,1.19,1.19,0,0,1-.82-1.48c0-.17,1.24-4.14,7.19-6.92a16.77,16.77,0,0,1,3.81-1.29c1.51-.38,4.35,1.88,3.63,2.23-.76-.15-3-.36-6.42,1.23-4.9,2.29-5.9,5.37-5.91,5.4A1.19,1.19,0,0,1,330.74,377.7Z" style="fill: rgb(255, 255, 255); transform-origin: 336.938px 372.839px;" id="elex5b3devwyl" class="animable"></path><path d="M324.47,372.72a1.18,1.18,0,0,1-.31-.05,1.12,1.12,0,0,1-.77-1.39c0-.16,1.17-3.9,6.78-6.52a15.08,15.08,0,0,1,4.56-1.38,2.36,2.36,0,0,1,2.73,2.33s-2-1.11-6.33,1.09c-4.54,2.31-5.56,5.07-5.57,5.1A1.13,1.13,0,0,1,324.47,372.72Z" style="fill: rgb(255, 255, 255); transform-origin: 330.403px 368.035px;" id="el32u1v7uuo1p" class="animable"></path><path d="M318.77,367.44a1,1,0,0,1-.51-.13,1.13,1.13,0,0,1-.49-1.52c.05-.08,4-7.59,12.68-7.6.66,0,1.81,1.31,1.77,2.38a12.42,12.42,0,0,0-12.44,6.26A1.13,1.13,0,0,1,318.77,367.44Z" style="fill: rgb(255, 255, 255); transform-origin: 324.933px 362.815px;" id="elwazohwzg1vt" class="animable"></path><path d="M239.85,108.54s-8.3-2.28-15.48-.17c-4.11,1.21-4,6.53-6.92,12-1.63,3.09-6,10.76-8.89,30.31-2.52,17.34-2,35.8-.13,56.23,23.14,15.19,63.33,4.88,68.84-6.07-1.53-4.94-2.46-13.76-2.22-28.8.35-22.49,9.55-57.69-11.68-60.53Z" style="fill: #00FF80; transform-origin: 242.088px 161.018px;" id="el3xtshxf3nkx" class="animable"></path><path d="M229.79,107.51a23.18,23.18,0,0,0-5.42.86c-4.11,1.21-4,6.53-6.92,12-1.35,2.55-4.6,8.24-7.29,21.18a5.59,5.59,0,0,0,2,.58c13.93,1.42,19.62-12.54,20.69-19.42S232.76,108.77,229.79,107.51Z" style="fill: rgb(55, 71, 79); transform-origin: 221.701px 124.87px;" id="el41cung72fqx" class="animable"></path><path d="M216.62,139.25l-2.75,1.21s-5.64,36.45-.28,69.28c1,.48,2.11.92,3.19,1.33C210.69,177.61,216.62,139.25,216.62,139.25Z" style="fill: rgb(55, 71, 79); transform-origin: 214.029px 175.16px;" id="elcl2qy0cdrog" class="animable"></path><path d="M222.48,139l-2.75,1.21s-5.95,38.4.17,71.87c1,.31,2.08.59,3.14.84C216.29,179,222.48,139,222.48,139Z" style="fill: rgb(55, 71, 79); transform-origin: 220.088px 175.96px;" id="eliow4c47d0qo" class="animable"></path><path d="M240.36,109.73c-1.9.13-2.08,1,0,5.23s8.76,13.68,17.43,12.38c7.42-1.1,6.37-7.63,5-11.63-.33-.94-.91-3.77-3.23-4.17l-9.5-.76Z" style="fill: rgb(55, 71, 79); transform-origin: 251.317px 118.596px;" id="ely9p6ki9zfvm" class="animable"></path><path d="M238.33,163.3a.59.59,0,0,1-.09-.55.91.91,0,0,1,.36-.53l6.53-5.17.59-.44a1.55,1.55,0,0,1,.77-.29L250,156a.65.65,0,0,1,.52.17.61.61,0,0,1,.18.52l-1.59,18.12a.87.87,0,0,1-.27.55.89.89,0,0,1-.56.28l-3.74.32a.62.62,0,0,1-.52-.18.58.58,0,0,1-.18-.51L244.89,163l-3.62,2.82a.82.82,0,0,1-.58.21.61.61,0,0,1-.49-.25Z" style="fill: rgb(55, 71, 79); transform-origin: 244.457px 165.98px;" id="elzvx7cgldna" class="animable"></path><path d="M262.44,154.65a9.12,9.12,0,0,1,3.62.3,5.62,5.62,0,0,1,2.4,1.43,5.22,5.22,0,0,1,1.3,2.29,9.52,9.52,0,0,1,.33,2.85c0,.81-.09,1.65-.16,2.52s-.17,1.71-.28,2.48a11.39,11.39,0,0,1-.83,2.95,8.39,8.39,0,0,1-1.73,2.56,9.18,9.18,0,0,1-2.69,1.88,11.1,11.1,0,0,1-3.73.94,9.31,9.31,0,0,1-3.62-.3,5.72,5.72,0,0,1-2.4-1.43,5.2,5.2,0,0,1-1.3-2.3A9.45,9.45,0,0,1,253,168c0-.76.08-1.58.16-2.46s.17-1.72.28-2.53a11.46,11.46,0,0,1,.83-3,8.46,8.46,0,0,1,1.73-2.55,9,9,0,0,1,2.69-1.88A10.81,10.81,0,0,1,262.44,154.65Zm2,12.19c.21-1.6.35-3.17.41-4.72a7.19,7.19,0,0,0-.1-1.27,2.34,2.34,0,0,0-.41-1,1.78,1.78,0,0,0-.85-.6,3.23,3.23,0,0,0-1.41-.13,4,4,0,0,0-1.44.37,3,3,0,0,0-1,.77,3.63,3.63,0,0,0-.61,1.07,6.44,6.44,0,0,0-.31,1.31,39,39,0,0,0-.41,4.71,5.82,5.82,0,0,0,.07,1.28,2.14,2.14,0,0,0,.43,1,1.94,1.94,0,0,0,.86.6,3.18,3.18,0,0,0,1.4.13,4,4,0,0,0,1.45-.38,3.3,3.3,0,0,0,1-.77,3.35,3.35,0,0,0,.6-1.06A6.6,6.6,0,0,0,264.4,166.84Z" style="fill: rgb(55, 71, 79); transform-origin: 261.546px 164.748px;" id="ela3liqn4ebnp" class="animable"></path><path d="M235.57,94.66a9.39,9.39,0,0,1,0-2.54A4.61,4.61,0,0,1,233,88.88a5.73,5.73,0,0,1,.77-4.13,12.58,12.58,0,0,1,3.34-3.25c.37-.28.82-1,.56-1.45-.41-.74-1.81-.51-2.47-.75a5.49,5.49,0,0,1-2.55-2,6.79,6.79,0,0,1-1.15-3.45,5.08,5.08,0,0,1,2-4.82,6.64,6.64,0,0,1,1.7-.94,7.75,7.75,0,0,1-2.79-3.4,6.45,6.45,0,0,1,0-4.54A5.85,5.85,0,0,1,235.63,57c1.7-.77,4.42-.46,4.66.06a8.92,8.92,0,0,1,1.5-9.43,9.05,9.05,0,0,1,5.46-2.81c.6-.08,3.67-.18,5.23,1,.16-1.52,1.74-3.09,3.35-3.76a7.57,7.57,0,0,1,5.12-.13c2.11.67,4.19,2.13,6.33,1.57.38-.09,2.29-.67,2.29-.67.46.09-.37,1-.28,1.5a4.25,4.25,0,0,1-.68,2.65c-2,3.58-6.36,5.08-10.42,5.5a57.75,57.75,0,0,0-6,.63,9.14,9.14,0,0,0-5.26,2.8,11.65,11.65,0,0,0-2.11,5A69.16,69.16,0,0,0,243,79c.19,5,.91,10.1-.28,15-.39,1.58.4,4.68-1.5,4.88A5,5,0,0,1,236,96.25,5.48,5.48,0,0,1,235.57,94.66Z" style="fill: rgb(38, 50, 56); transform-origin: 250.578px 70.2442px;" id="elxrymv2plqqi" class="animable"></path><path d="M247.55,69c-1.14,11,6.51,20.82,17.08,21.91s19.58-7,21.19-18c2.85-19.38-6.51-20.82-17.08-21.91S248.69,58,247.55,69Z" style="fill: rgb(38, 50, 56); transform-origin: 266.888px 70.955px;" id="el3ryuom70lhu" class="animable"></path><path d="M236.78,60.05c2.6-3.26,4.65-2.51,4.65-2.51l-.28,17.1,2.31.73L241.3,98.28a6.6,6.6,0,0,1-2.56-3.39c-.64-1.68-1.33-11.54-1.68-17.44C237.06,77.45,234.56,62.85,236.78,60.05Z" style="fill: rgb(38, 50, 56); transform-origin: 239.661px 77.8728px;" id="elno970ne61cg" class="animable"></path><path d="M242.74,79.14c-1.18.57-2.53-1.81-3.75-3.44s-5.46-4.13-8.19.53S231.57,88,235,89.5c5.86,2.61,7.18-1.34,7.18-1.34L240.26,111c8.85,21.36,28.58,18.19,19.76,1.43l.7-6.92s5.39,1.43,8.12,1.28c4.52-.26,7.7-3.63,9.57-8.51,3-7.84,4.5-14.27,4.29-30.32-.22-17.59-19.61-19.77-30.8-14S242.74,79.14,242.74,79.14Z" style="fill: rgb(177, 102, 104); transform-origin: 256.271px 88.5622px;" id="elecr74efiyjd" class="animable"></path><path d="M273.91,65.78c-9-.7-14.42-3.18-21.77-4.83a2.88,2.88,0,0,0-1.51-.05c-1.72.57-2.61,5.65-3,7.1-1.48,4.88-3.16,13.24-5,13.08-.56,0-2.3-3.93-3.55-5.38-1.72-2,2.44-18.15,2.44-18.16a18.66,18.66,0,0,0-.22-2.28,7.62,7.62,0,0,1,1.6-4A12.68,12.68,0,0,1,250,46.47c5.25-1.45,10.76-.64,16-2.38,2.09-.69,4.1-1.72,6.28-2.07s4.68.11,6,1.88a7.75,7.75,0,0,1,1.18,4.16,10.44,10.44,0,0,1,4.11-3.13c3.06-1,6.5,1.21,7.72,4.19s.63,6.43-.62,9.4a12,12,0,0,1-1.54,2.75C285.91,65.46,278.79,66.15,273.91,65.78Z" style="fill: rgb(38, 50, 56); transform-origin: 265.312px 61.4967px;" id="eljva4zzrwuq" class="animable"></path><path d="M239.8,58.2l-6.31-4.44a3.64,3.64,0,0,1,5.25-1.22A4.26,4.26,0,0,1,239.8,58.2Z" style="fill: rgb(38, 50, 56); transform-origin: 236.967px 55.0467px;" id="els7g3jakgy4d" class="animable"></path><path d="M260.72,105.46s-9.73-3.11-13-5.39a11.79,11.79,0,0,1-4.3-5.45,16.81,16.81,0,0,0,2.13,6.12c2.19,3.65,14.88,7.47,14.88,7.47Z" style="fill: rgb(154, 74, 77); transform-origin: 252.07px 101.415px;" id="elgpesqmfnrup" class="animable"></path><path d="M261.09,78.42a2.07,2.07,0,0,1-2.21,1.94A2.1,2.1,0,0,1,257.11,78a2.07,2.07,0,0,1,2.21-1.94A2.1,2.1,0,0,1,261.09,78.42Z" style="fill: rgb(38, 50, 56); transform-origin: 259.1px 78.21px;" id="elx4aco19ioe" class="animable"></path><path d="M259.4,70.52l-4.52,2a2.74,2.74,0,0,1,1.36-3.43A2.34,2.34,0,0,1,259.4,70.52Z" style="fill: rgb(38, 50, 56); transform-origin: 257.052px 70.7081px;" id="elw01vhib2iyc" class="animable"></path><path d="M261.1,92.9l4.37,2.25a2.38,2.38,0,0,1-3.25,1.25A2.7,2.7,0,0,1,261.1,92.9Z" style="fill: rgb(154, 74, 77); transform-origin: 263.157px 94.7702px;" id="elyzdn238umi" class="animable"></path><path d="M279.51,75.24l-3.57-3.52a2.31,2.31,0,0,1,3.44-.19A2.78,2.78,0,0,1,279.51,75.24Z" style="fill: rgb(38, 50, 56); transform-origin: 278.048px 73.0458px;" id="elmfu554m8sq" class="animable"></path><path d="M277.72,79.54a2.07,2.07,0,0,1-2.21,1.94,2.1,2.1,0,0,1-1.77-2.37,2,2,0,1,1,4,.43Z" style="fill: rgb(38, 50, 56); transform-origin: 275.736px 79.3977px;" id="elgj92wtnd1c" class="animable"></path><polygon points="267.23 76.77 266.17 89.38 273.48 88.47 267.23 76.77" style="fill: rgb(154, 74, 77); transform-origin: 269.825px 83.075px;" id="elcu1tbwkkqvc" class="animable"></polygon><path d="M191.73,215.19a38.21,38.21,0,0,1-4.06-11.59c.78.91,2,3.36,4.91,4.77,1.58.77,4.44.91,5-.51s-2.32-2.86-3.21-4.5a98.63,98.63,0,0,0-7.44-10.76,5.42,5.42,0,0,1-1.7-3.89c.18-10.44,1.75-21.65,2.08-32.33,7.64-5.44,20.48-11.41,27.38-15.79a18.29,18.29,0,0,0,11-6.2c2.88-3.1,5.7-10,5.72-16.65,0-3.56-.61-7.23-1.61-8.78-1.38-1.48-4.9-1.8-12.06,1.17-3,1.26-10.68,5.38-23.69,14.24-6.87,4.69-17.77,11.59-25.64,20.55-3.24,3.69,0,36.9.51,44.07a150.48,150.48,0,0,0,2.25,19.31c1.8,8.57,6.65,15.83,13,15.85C194.36,224.18,194.52,220.22,191.73,215.19Z" style="fill: rgb(177, 102, 104); transform-origin: 199.199px 166.006px;" id="elp9g2vxlkp2" class="animable"></path><g id="eln9797zr8xyp"><circle cx="341.41" cy="219.95" r="31.75" style="fill: #00FF80; transform-origin: 341.41px 219.95px; transform: rotate(-10.2deg);" class="animable" id="elpazh89fq8g"></circle></g><g id="elekizszyhc8"><path d="M372.4,226.85c-2.35,10.48-21.47,22-39.45,10.26s-15.73-37.69.13-47.79a31.75,31.75,0,1,0,39.32,37.53Z" style="opacity: 0.1; transform-origin: 341.028px 220.514px;" class="animable" id="el7nq7l8dopww"></path></g><path d="M362.08,208.39c4.64,1.83,8.38,6.34,11.05,10.61,0-.87-.08-1.73-.17-2.58-2.67-3.84-6.17-7.55-10.41-9.23a13.33,13.33,0,0,0-10.45.27q-1.39-1.68-3-3.35c-.91-1-1.81-1.84-2.72-2.65,8.21-3.71,13.71-3.76,18.59-2.75-.49-.55-1-1.07-1.54-1.58-4.76-.7-10.24-.25-18.1,3.4a39.94,39.94,0,0,0-4.44-3.27c4.21-2.58,6.1-5.29,5.87-8.59-.42-.07-.85-.14-1.28-.19.25,2.52-.95,5.2-5.83,8A33.42,33.42,0,0,0,326,192.21c-.63.36-1.26.73-1.86,1.13a32.18,32.18,0,0,1,14.27,3.88c-4.41,2.27-9.17,3.26-13.79,4.23-3.95.82-7.76,1.62-11,3.19-.37.66-.7,1.33-1,2,3.37-2.1,7.73-3,12.27-4,4.95-1,10.07-2.11,14.84-4.72a36.88,36.88,0,0,1,4.41,3.17c-11.29,5.78-25.33,21.23-26.38,39.93.39.44.8.88,1.22,1.3.45-19,14.9-34.78,26.22-40.33,1,.89,2,1.86,3,2.94s1.85,2,2.71,3c-10.63,5.58-11.1,20.78-11.58,36.85-.07,2.22-.14,4.48-.24,6.73l1.28.06c.1-2.26.17-4.52.24-6.75.48-15.8.93-30.74,11.13-35.87,8.77,10.88,12.12,22.5,10.11,35.19.51-.43,1-.88,1.49-1.35,1.57-12.35-1.87-23.71-10.38-34.38A12,12,0,0,1,362.08,208.39Z" style="fill: rgb(69, 90, 100); transform-origin: 342.875px 220.025px;" id="el3gfvvbdyw4p" class="animable"></path></g></g><defs>     <filter id="active" height="200%">         <feMorphology in="SourceAlpha" result="DILATED" operator="dilate" radius="2"></feMorphology>                <feFlood flood-color="#32DFEC" flood-opacity="1" result="PINK"></feFlood>        <feComposite in="PINK" in2="DILATED" operator="in" result="OUTLINE"></feComposite>        <feMerge>            <feMergeNode in="OUTLINE"></feMergeNode>            <feMergeNode in="SourceGraphic"></feMergeNode>        </feMerge>    </filter>    <filter id="hover" height="200%">        <feMorphology in="SourceAlpha" result="DILATED" operator="dilate" radius="2"></feMorphology>                <feFlood flood-color="#ff0000" flood-opacity="0.5" result="PINK"></feFlood>        <feComposite in="PINK" in2="DILATED" operator="in" result="OUTLINE"></feComposite>        <feMerge>            <feMergeNode in="OUTLINE"></feMergeNode>            <feMergeNode in="SourceGraphic"></feMergeNode>        </feMerge>            <feColorMatrix type="matrix" values="0   0   0   0   0                0   1   0   0   0                0   0   0   0   0                0   0   0   1   0 "></feColorMatrix>    </filter></defs></svg>